<svg width="21.000000" height="24.000000" viewBox="0 0 21 24" fill="none" xmlns="http://www.w3.org/2000/svg" xmlns:xlink="http://www.w3.org/1999/xlink">
	<desc>
			Created with Pixso.
	</desc>
	<defs/>
	<path id="Shape" d="M20.341 3.09097L17.909 0.659027C17.4871 0.237061 16.9147 0 16.3181 0L8.25 0C7.00734 0 6 1.00735 6 2.25L6 4.5L2.25 4.5C1.00734 4.5 0 5.50735 0 6.75L0 21.75C0 22.9926 1.00734 24 2.25 24L12.75 24C13.9926 24 15 22.9926 15 21.75L15 19.5L18.75 19.5C19.9926 19.5 21 18.4926 21 17.25L21 4.68198C21 4.08524 20.763 3.51294 20.341 3.09097ZM18.4687 17.25L8.53125 17.25C8.45665 17.25 8.38512 17.2204 8.33238 17.1677C8.27963 17.1149 8.25 17.0434 8.25 16.9687L8.25 2.53125C8.25 2.45667 8.27963 2.38513 8.33238 2.33237C8.38512 2.27963 8.45665 2.25 8.53125 2.25L13.5 2.25L13.5 6.375C13.5 6.99634 14.0036 7.5 14.625 7.5L18.75 7.5L18.75 16.9687C18.75 17.0434 18.7204 17.1149 18.6677 17.1677C18.6149 17.2204 18.5434 17.25 18.4687 17.25ZM15.75 5.25L18.75 5.25L18.75 4.79849C18.75 4.76157 18.7427 4.72498 18.7286 4.69086C18.7145 4.65674 18.6937 4.62573 18.6677 4.59961L16.4004 2.33237C16.3476 2.27963 16.2761 2.25 16.2014 2.25L15.75 2.25L15.75 5.25ZM2.53125 21.75L12.4687 21.75C12.5434 21.75 12.6149 21.7204 12.6677 21.6677C12.7204 21.6149 12.75 21.5434 12.75 21.4687L12.75 19.5L8.25 19.5C7.00734 19.5 6 18.4926 6 17.25L6 6.75L2.53125 6.75C2.45665 6.75 2.38512 6.77963 2.33238 6.83237C2.27963 6.88513 2.25 6.95667 2.25 7.03125L2.25 21.4687C2.25 21.5434 2.27963 21.6149 2.33238 21.6677C2.38512 21.7204 2.45665 21.75 2.53125 21.75Z" clip-rule="evenodd" fill="#A4FFAF" fill-opacity="1.000000" fill-rule="evenodd"/>
</svg>
