<svg width="31.000000" height="14.000000" viewBox="0 0 31 14" fill="none" xmlns="http://www.w3.org/2000/svg" xmlns:xlink="http://www.w3.org/1999/xlink">
	<desc>
			Created with Pixso.
	</desc>
	<defs/>
	<path id="cm" d="M10.9 8.52C10.67 11.3 8.58 13.25 5.29 13.25C1.38 13.25 -0.98 10.46 -0.98 6.5C-0.98 2.5 1.44 -0.26 5.27 -0.26C8.47 -0.26 10.69 1.6 10.9 4.44L7.95 4.44C7.71 3.17 6.8 2.22 5.31 2.22C3.41 2.22 2.14 3.81 2.14 6.45C2.14 9.13 3.39 10.74 5.31 10.74C6.67 10.74 7.69 9.92 7.95 8.52L10.9 8.52ZM15.32 13L12.24 13L12.24 -0.09L15.19 -0.09L15.19 2.13L15.34 2.13C15.89 0.64 17.2 -0.26 18.96 -0.26C20.72 -0.26 21.99 0.64 22.49 2.13L22.63 2.13C23.21 0.67 24.66 -0.26 26.56 -0.26C28.96 -0.26 30.65 1.28 30.65 4.21L30.65 13L27.55 13L27.55 4.69C27.55 3.06 26.57 2.33 25.32 2.33C23.83 2.33 22.95 3.36 22.95 4.83L22.95 13L19.93 13L19.93 4.56C19.93 3.21 19.03 2.33 17.73 2.33C16.4 2.33 15.32 3.43 15.32 5.03L15.32 13Z" fill="#345FF6" fill-opacity="1.000000" fill-rule="evenodd"/>
</svg>
