<svg width="24.000000" height="23.000000" viewBox="0 0 24 23" fill="none" xmlns="http://www.w3.org/2000/svg" xmlns:xlink="http://www.w3.org/1999/xlink">
	<desc>
			Created with Pixso.
	</desc>
	<defs/>
	<path id="kg" d="M2.66 17L-0.42 17L-0.42 -0.46L2.66 -0.46L2.66 9.16L2.88 9.16L7.58 3.91L11.19 3.91L6.12 9.55L11.49 17L7.8 17L3.79 11.39L2.66 12.59L2.66 17ZM23.33 17.21C23.33 20.56 20.72 22.17 17.18 22.17C13.85 22.17 11.97 20.7 11.4 18.87L14.18 18.2C14.56 18.96 15.38 19.84 17.23 19.84C18.99 19.84 20.27 19.05 20.27 17.12L20.27 14.65L20.12 14.65C19.64 15.61 18.59 16.81 16.35 16.81C13.33 16.81 10.95 14.67 10.95 10.41C10.95 6.1 13.33 3.74 16.35 3.74C18.66 3.74 19.65 5.12 20.12 6.07L20.29 6.07L20.29 3.91L23.33 3.91L23.33 17.21ZM14.1 10.39C14.1 12.8 15.17 14.39 17.21 14.39C19.18 14.39 20.29 12.89 20.29 10.39C20.29 7.91 19.19 6.27 17.21 6.27C15.15 6.27 14.1 8.01 14.1 10.39Z" fill="#345FF6" fill-opacity="1.000000" fill-rule="evenodd"/>
</svg>
